inDegrees=yes
name=ik_iyer
DataType=double
version=3
OpenSimVersion=4.5
endheader
time	gndpitch	gndroll	gndyaw	spine_tx	spine_ty	spine_tz	pitch2	roll2	yaw2	aux7jnt_r3	aux7jnt_r1	aux7jnt_r2	aux6jnt_r3	aux6jnt_r1	aux6jnt_r2	aux5jnt_r3	aux5jnt_r1	aux5jnt_r2	aux4jnt_r3	aux4jnt_r1	aux4jnt_r2	aux3jnt_r3	aux3jnt_r1	aux3jnt_r2	pitch1	roll1	yaw1	aux1jnt_r3	aux1jnt_r1	aux1jnt_r2
106.7750000000072	4.21296440140691e-09	8.002416233845703e-10	4.440363815649541e-10	-3.97872216927308e-17	8.44526185968539e-17	-7.30666612219483e-19	-0.5758962439980861	-0.1642787103006915	0.464854105782745	-6.170336811474079	-1.289508184159804	5.007224919517544	-7.25920198474563	-1.477759876621293	5.832880938530282	-7.25920198474563	-2.033093471015804	5.832880938530282	-5.444401488559223	-2.033093471015804	5.832880938530282	-3.629600992372815	-1.844847171503938	2.503612459758772	-0.2791709021298907	0.1045100078153443	0.2996352832971801	-8.893390437900425	2.993991182349237	1.905633560484505
106.8000000000072	4.21296440140691e-09	8.002416233845703e-10	4.440363815649541e-10	-3.97872216927308e-17	8.44526185968539e-17	-7.30666612219483e-19	-0.5758962889629468	-0.1668507334505138	0.4631560377211539	-6.170337293242	-1.309697318195943	4.988934000695355	-7.259202551530032	-1.500896365857128	5.811573976398363	-7.259202551530032	-2.064924518773815	5.811573976398363	-5.444401913647522	-2.064924518773815	5.811573976398363	-3.629601275765016	-1.873730948496757	2.494467000347678	-0.2791708905926972	0.1045111279277228	0.3031167176007659	-8.893390070366543	2.994023271205173	1.927774938410801
106.8250000000072	4.21296440140691e-09	8.002416233845703e-10	4.440363815649541e-10	-3.97872216927308e-17	8.44526185968539e-17	-7.30666612219483e-19	-0.5758964387521618	-0.1665366802073575	0.4643165697869557	-6.170338898131623	-1.307232152584581	5.001434793971122	-7.259204439630844	-1.498071317614359	5.82613606218175	-7.259204439630844	-2.06103783377949	5.82613606218175	-5.444403329723131	-2.06103783377949	5.82613606218175	-3.629602219815422	-1.870204135824083	2.500717396985561	-0.2791711126102686	0.1045113699328963	0.3027306654970571	-8.893397143055463	2.994030204142704	1.925319707381839
106.8500000000072	4.21296440140691e-09	8.002416233845703e-10	4.440363815649541e-10	-3.97872216927308e-17	8.44526185968539e-17	-7.30666612219483e-19	-0.575896582071256	-0.1680126207668668	0.4627035981261258	-6.170340433698303	-1.318817569997081	4.984060499984873	-7.259206246175449	-1.511348057705199	5.805896869846332	-7.259206246175449	-2.079303895825224	5.805896869846332	-5.444404684631587	-2.079303895825224	5.805896869846332	-3.629603123087724	-1.886778923643728	2.492030249992436	-0.2791712561201904	0.1045126326420882	0.3057158236716878	-8.893401714770338	2.994066378096425	1.944304846709668
106.8750000000072	4.21296440140691e-09	8.002416233845703e-10	4.440363815649541e-10	-3.97872216927308e-17	8.44526185968539e-17	-7.30666612219483e-19	-0.5758968600385095	-0.1674227556333415	0.4635877419662521	-6.170343411928488	-1.314187414842836	4.993584148401972	-7.259209749967077	-1.506041959152647	5.816990900613921	-7.259209749967077	-2.072003796198469	5.816990900613921	-5.444407312475309	-2.072003796198469	5.816990900613921	-3.629604874983539	-1.880154748051154	2.496792074200986	-0.2791716757858861	0.104513450039941	0.3051498514136525	-8.893415083824408	2.99408979482	1.940705351625688
106.9000000000072	4.21296440140691e-09	8.002416233845703e-10	4.440363815649541e-10	-3.97872216927308e-17	8.44526185968539e-17	-7.30666612219483e-19	-0.5758971330814679	-0.1670203571770978	0.4637052694994883	-6.170346337398197	-1.311028782165056	4.994850108594274	-7.25921319168771	-1.502422206526379	5.818465608699398	-7.25921319168771	-2.067023761520585	5.818465608699398	-5.444409893765783	-2.067023761520585	5.818465608699398	-3.629606595843855	-1.875635820111804	2.497425054297137	-0.2791720732183731	0.104514447343195	0.3053925564811912	-8.893427744607656	2.994118365453678	1.942248917913718
106.9250000000072	4.21296440140691e-09	8.002416233845703e-10	4.440363815649541e-10	-3.97872216927308e-17	8.44526185968539e-17	-7.30666612219483e-19	-0.5758974133623272	-0.1679750009085987	0.4621593287357026	-6.170349340417094	-1.318522272359092	4.978197844969558	-7.259216724642463	-1.511009650391125	5.799067504431827	-7.259216724642463	-2.07883831700442	5.799067504431827	-5.444412543481846	-2.07883831700442	5.799067504431827	-3.629608362321231	-1.886356453264024	2.489098922484779	-0.2791724506398906	0.1045160907831913	0.3082091890074667	-8.893439767912691	2.994165446541514	1.960162260463229
106.9500000000072	4.21296440140691e-09	8.002416233845703e-10	4.440363815649541e-10	-3.97872216927308e-17	8.44526185968539e-17	-7.30666612219483e-19	-0.5758977613433034	-0.1668546864209644	0.4634687466771861	-6.170353068796726	-1.309728347096392	4.992302378123288	-7.259221110960691	-1.500931924579952	5.815497775470496	-7.259221110960691	-2.064973440258526	5.815497775470496	-5.444415833220516	-2.064973440258526	5.815497775470496	-3.629610555480345	-1.873775340288862	2.496151189061644	-0.2791729675102265	0.1045172997407975	0.3074598506427363	-8.893456233560324	2.994200080625734	1.955396585605865
106.9750000000072	4.21296440140691e-09	8.002416233845703e-10	4.440363815649541e-10	-3.97872216927308e-17	8.44526185968539e-17	-7.30666612219483e-19	-0.5758980200188842	-0.167945226639578	0.4616976724152878	-6.17035584032975	-1.318288558790796	4.973225065331652	-7.259224371579784	-1.510741817632795	5.793274748558527	-7.259224371579784	-2.07846983424826	5.793274748558527	-5.444418278684838	-2.07846983424826	5.793274748558527	-3.629612185789892	-1.886022088720462	2.486612532665826	-0.2791733065974644	0.1045187616210576	0.3104894653926697	-8.893467035671772	2.994241960410261	1.974664461802826
107.0000000000072	4.21296440140691e-09	8.002416233845703e-10	4.440363815649541e-10	-3.97872216927308e-17	8.44526185968539e-17	-7.30666612219483e-19	-0.5758982869460021	-0.1682265995525992	0.4607574258578996	-6.170358700272386	-1.320497199663845	4.963097100591581	-7.259227736209929	-1.513272891808322	5.7814767539751	-7.259227736209929	-2.08195207142517	5.7814767539751	-5.444420802157447	-2.08195207142517	5.7814767539751	-3.629613868104964	-1.889181901831819	2.48154855029579	-0.2791736462752398	0.1045205493973968	0.3122739913756217	-8.893477856595643	2.994293176429738	1.986013768083613
